<svg xmlns="http://www.w3.org/2000/svg" xmlns:xlink="http://www.w3.org/1999/xlink" viewBox="0,0,256,256" width="2rem" height="2rem"><g fill="#ffffff" fill-rule="nonzero" stroke="none" stroke-width="1" stroke-linecap="butt" stroke-linejoin="miter" stroke-miterlimit="10" stroke-dasharray="" stroke-dashoffset="0" font-family="none" font-weight="none" font-size="none" text-anchor="none" style="mix-blend-mode: normal"><g transform="scale(5.12,5.12)"><path d="M25,2l-0.21875,0.00195l0.01563,2l0.20313,-0.00195c1.529,0 3.0542,0.16519 4.5332,0.49219l0.43359,-1.95312c-1.621,-0.358 -3.2928,-0.53906 -4.9668,-0.53906zM22.69531,2.11328c-1.74,0.174 -3.45366,0.54738 -5.09766,1.10938l0.64453,1.89258c1.499,-0.513 3.06534,-0.85272 4.65234,-1.01172zM31.98438,3.08594l-0.60742,1.9043c1.517,0.486 2.97212,1.1468 4.32813,1.9668l1.03516,-1.71094c-1.49,-0.901 -3.09086,-1.62716 -4.75586,-2.16016zM15.64844,3.99219c-1.597,0.719 -3.10256,1.62255 -4.47656,2.68555l1.22266,1.58203c1.251,-0.968 2.62117,-1.79031 4.07617,-2.44531zM38.47656,6.41211l-1.19141,1.60742c1.281,0.951 2.44227,2.04867 3.44727,3.26367l1.54102,-1.27344c-1.108,-1.339 -2.38587,-2.55066 -3.79688,-3.59766zM25,7c-9.374,0 -17,7.178 -17,16c0,5.129 2.606,9.9265 7,12.9375v5.0625c0,0.357 0.19,0.68623 0.5,0.86523c0.154,0.089 0.327,0.13477 0.5,0.13477c0.172,0 0.34405,-0.04477 0.49805,-0.13477l5.43164,-3.12695c1.01,0.174 2.04231,0.26172 3.07031,0.26172c9.374,0 17,-7.178 17,-16c0,-8.822 -7.626,-16 -17,-16zM9.57813,8.03711c-1.283,1.205 -2.41061,2.55753 -3.34961,4.01953l1.68359,1.08008c0.851,-1.325 1.87216,-2.55058 3.03516,-3.64258zM25,9c8.271,0 15,6.28 15,14c0,7.72 -6.729,14 -15,14c-1.027,0 -2.0585,-0.09897 -3.0625,-0.29297c-0.235,-0.045 -0.48145,-0.00476 -0.68945,0.11523l-4.24805,2.44727v-3.86914c0,-0.341 -0.17489,-0.6578 -0.46289,-0.8418c-4.094,-2.617 -6.53711,-6.93859 -6.53711,-11.55859c0,-7.72 6.729,-14 15,-14zM43.5293,11.68945l-1.66016,1.11524c0.888,1.321 1.60014,2.74356 2.11914,4.22656l1.89063,-0.66016c-0.576,-1.644 -1.36761,-3.21864 -2.34961,-4.68164zM5.18555,13.87891c-0.798,1.572 -1.38505,3.23436 -1.74805,4.94336l1.95703,0.41602c0.326,-1.54 0.85522,-3.03808 1.57422,-4.45508zM46.4668,18.39258l-1.94727,0.45703c0.319,1.353 0.48047,2.75039 0.48047,4.15039c0,0.184 -0.00377,0.36683 -0.00977,0.54883l2,0.06055c0.006,-0.202 0.00977,-0.40537 0.00977,-0.60937c0,-1.555 -0.1802,-3.10442 -0.5332,-4.60742zM3.10938,20.90039c-0.072,0.695 -0.10937,1.40061 -0.10937,2.09961c0,1.052 0.08209,2.10958 0.24609,3.14258l1.97656,-0.3125c-0.147,-0.931 -0.22266,-1.88208 -0.22266,-2.83008c0,-0.63 0.03366,-1.26658 0.09766,-1.89258zM44.83594,25.4375c-0.211,1.563 -0.62823,3.09564 -1.24023,4.55664l1.8457,0.77344c0.679,-1.623 1.14395,-3.3265 1.37695,-5.0625zM5.61523,27.68359l-1.93164,0.51563c0.45,1.688 1.12114,3.32061 1.99414,4.84961l1.73633,-0.99219c-0.787,-1.38 -1.39183,-2.85105 -1.79883,-4.37305zM42.77539,31.70313c-0.752,1.38 -1.68253,2.6747 -2.76953,3.8457l1.4668,1.35938c1.199,-1.293 2.22659,-2.72305 3.05859,-4.24805zM8.4375,33.65625l-1.62695,1.16211c0.932,1.307 2.02033,2.51194 3.23633,3.58594l0.41016,4.02344l1.99219,-0.20312l-0.45312,-4.41797c-0.027,-0.257 -0.15166,-0.49316 -0.34766,-0.66016c-1.215,-1.033 -2.29494,-2.20723 -3.21094,-3.49023zM38.64648,36.87695c-1.18,1.048 -2.49339,1.96094 -3.90039,2.71094l0.94141,1.76367c1.545,-0.824 2.98811,-1.82747 4.28711,-2.98047zM33.02344,40.40234c-1.461,0.61 -3.00027,1.05245 -4.57227,1.31445l0.32813,1.97266c1.725,-0.287 3.41262,-0.77241 5.01563,-1.44141zM22.84766,41.89063c-0.167,-0.016 -0.34781,0.01008 -0.50781,0.08008l-1.01367,0.44922l0.8125,1.82813l0.77148,-0.34375c1.269,0.115 2.55392,0.1242 3.79492,0.0332l-0.14648,-1.99414c-1.217,0.088 -2.47494,0.07227 -3.71094,-0.05273zM19.5,43.23242l-4.57227,2.02734l0.81055,1.82813l4.57227,-2.02734zM12.65234,44.21289l-1.99024,0.20508l0.34375,3.33594c0.033,0.319 0.21619,0.60072 0.49219,0.76172c0.155,0.09 0.32795,0.13477 0.50195,0.13477c0.138,0 0.2753,-0.02694 0.4043,-0.08594l1.50586,-0.66797l-0.81055,-1.82812l-0.24609,0.10938z"></path></g></g></svg>